<svg width="20.000000" height="20.000000" viewBox="0 0 20 20" fill="none" xmlns="http://www.w3.org/2000/svg" xmlns:xlink="http://www.w3.org/1999/xlink">
	<desc>
			Created with Pixso.
	</desc>
	<defs>
		<clipPath id="clip18619_1671">
			<rect rx="0.000000" width="19.000000" height="19.000000" transform="translate(0.500000 0.500000)" fill="white" fill-opacity="0"/>
		</clipPath>
	</defs>
	<rect rx="0.000000" width="19.000000" height="19.000000" transform="translate(0.500000 0.500000)" fill="#FFFFFF" fill-opacity="0"/>
	<g clip-path="url(#clip18619_1671)">
		<path d="M15 18.33L15 16.04C15 15.35 15 15 14.91 14.68C14.83 14.4 14.71 14.13 14.54 13.89C14.35 13.62 14.08 13.4 13.56 12.96L10 10L6.43 7.03C5.91 6.59 5.64 6.37 5.45 6.1C5.28 5.86 5.16 5.59 5.08 5.31C5 4.99 5 4.64 5 3.95L5 1.66M15 1.66L15 3.95C15 4.64 15 4.99 14.91 5.31C14.83 5.59 14.71 5.86 14.54 6.1C14.35 6.37 14.08 6.59 13.56 7.03L10 10M5 18.33L5 16.04C5 15.35 5 15 5.08 14.68C5.16 14.4 5.28 14.13 5.45 13.89C5.64 13.62 5.91 13.4 6.43 12.96L10 10" stroke="#F9F9F9" stroke-opacity="1.000000" stroke-width="2.000000" stroke-linejoin="round" stroke-linecap="round"/>
		<path d="M3.33 1.66L16.66 1.66M3.33 18.33L16.66 18.33" stroke="#F9F9F9" stroke-opacity="1.000000" stroke-width="2.000000" stroke-linejoin="round" stroke-linecap="round"/>
	</g>
</svg>
