<svg width="20.000000" height="20.000000" viewBox="0 0 20 20" fill="none" xmlns="http://www.w3.org/2000/svg" xmlns:xlink="http://www.w3.org/1999/xlink">
	<desc>
			Created with Pixso.
	</desc>
	<defs>
		<clipPath id="clip18619_1686">
			<rect id="pie-chart-02" rx="0.000000" width="19.000000" height="19.000000" transform="translate(0.500000 0.500000)" fill="white" fill-opacity="0"/>
		</clipPath>
	</defs>
	<rect id="pie-chart-02" rx="0.000000" width="19.000000" height="19.000000" transform="translate(0.500000 0.500000)" fill="#FFFFFF" fill-opacity="0"/>
	<g clip-path="url(#clip18619_1686)">
		<g opacity="0.800000">
			<path id="Accent" d="M13.87 15.37C13.14 16.46 12.1 17.32 10.88 17.82C9.66 18.33 8.32 18.46 7.03 18.2C5.73 17.94 4.55 17.31 3.61 16.38C2.68 15.44 2.05 14.26 1.79 12.96C1.53 11.67 1.66 10.33 2.17 9.11C2.67 7.89 3.53 6.85 4.62 6.12C5.54 5.51 6.58 5.14 7.66 5.03C7.87 5.01 7.98 5 8.07 5.04C8.16 5.07 8.23 5.14 8.28 5.22C8.33 5.32 8.33 5.43 8.33 5.66L8.33 11C8.33 11.23 8.33 11.35 8.37 11.43C8.41 11.51 8.48 11.58 8.56 11.62C8.64 11.66 8.76 11.66 9 11.66L14.33 11.66C14.56 11.66 14.67 11.66 14.77 11.71C14.85 11.76 14.92 11.83 14.95 11.92C14.99 12.01 14.98 12.12 14.96 12.33C14.85 13.41 14.48 14.45 13.87 15.37Z" stroke="#F9F9F9" stroke-opacity="1.000000" stroke-width="2.000000" stroke-linejoin="round"/>
		</g>
		<path id="Icon" d="M16.38 3.61C17.47 4.71 18.14 6.14 18.29 7.66C18.32 7.87 18.33 7.98 18.28 8.07C18.25 8.16 18.18 8.23 18.1 8.28C18.01 8.33 17.89 8.33 17.66 8.33L12.33 8.33C12.1 8.33 11.98 8.33 11.89 8.28C11.81 8.24 11.75 8.18 11.71 8.1C11.66 8.01 11.66 7.9 11.66 7.66L11.66 2.33C11.66 2.1 11.66 1.98 11.71 1.89C11.76 1.81 11.83 1.74 11.92 1.71C12.01 1.66 12.12 1.67 12.33 1.7C13.85 1.85 15.28 2.52 16.38 3.61Z" stroke="#F9F9F9" stroke-opacity="1.000000" stroke-width="2.000000" stroke-linejoin="round"/>
	</g>
</svg>
