<svg width="14.000000" height="14.000000" viewBox="0 0 14 14" fill="none" xmlns="http://www.w3.org/2000/svg" xmlns:xlink="http://www.w3.org/1999/xlink">
	<desc>
			Created with Pixso.
	</desc>
	<defs>
		<clipPath id="clip18786_174">
			<rect id="trash-2" rx="0.000000" width="13.000000" height="13.000000" transform="translate(0.500000 0.500000)" fill="white" fill-opacity="0"/>
		</clipPath>
	</defs>
	<rect id="trash-2" rx="0.000000" width="13.000000" height="13.000000" transform="translate(0.500000 0.500000)" fill="#FFFFFF" fill-opacity="0"/>
	<g clip-path="url(#clip18786_174)">
		<path id="Vector" d="M1.75 3.5L2.91 3.5L12.25 3.5" stroke="#E85050" stroke-opacity="1.000000" stroke-width="1.000000" stroke-linejoin="round" stroke-linecap="round"/>
		<path id="Vector" d="M11.08 3.5L11.08 11.66C11.08 11.97 10.96 12.27 10.74 12.49C10.52 12.71 10.22 12.83 9.91 12.83L4.08 12.83C3.77 12.83 3.47 12.71 3.25 12.49C3.04 12.27 2.91 11.97 2.91 11.66L2.91 3.5M4.66 3.5L4.66 2.33C4.66 2.02 4.79 1.72 5 1.5C5.22 1.28 5.52 1.16 5.83 1.16L8.16 1.16C8.47 1.16 8.77 1.28 8.99 1.5C9.21 1.72 9.33 2.02 9.33 2.33L9.33 3.5" stroke="#E85050" stroke-opacity="1.000000" stroke-width="1.000000" stroke-linejoin="round" stroke-linecap="round"/>
		<path id="Vector" d="M5.83 6.41L5.83 9.91" stroke="#E85050" stroke-opacity="1.000000" stroke-width="1.000000" stroke-linejoin="round" stroke-linecap="round"/>
		<path id="Vector" d="M8.16 6.41L8.16 9.91" stroke="#E85050" stroke-opacity="1.000000" stroke-width="1.000000" stroke-linejoin="round" stroke-linecap="round"/>
	</g>
</svg>
